<svg width="28" height="28" viewBox="0 0 28 28" fill="none" xmlns="http://www.w3.org/2000/svg">
<rect width="28" height="28" rx="4" fill="#F6F8FD"/>
<path d="M8.82141 20.5714H20.3571V7.21429C20.3571 6.89224 20.2292 6.58338 20.0015 6.35566C19.7737 6.12793 19.4649 6 19.1428 6H8.82141V20.5714Z" fill="#067DFD"/>
<path d="M7.60718 21.1787H20.3572V22.393H7.60718V21.1787Z" fill="#E8EAF6"/>
<path d="M7.91071 6C7.66918 6 7.43753 6.09595 7.26674 6.26674C7.09595 6.43753 7 6.66918 7 6.91071V21.7857H7.60714C7.60714 21.6247 7.67111 21.4703 7.78497 21.3564C7.89883 21.2425 8.05326 21.1786 8.21429 21.1786H8.82143V6H7.91071Z" fill="#0050AE"/>
<path d="M7.91071 20.5713C7.66918 20.5713 7.43753 20.6672 7.26674 20.838C7.09595 21.0088 7 21.2405 7 21.482V22.0891C7 22.3307 7.09595 22.5623 7.26674 22.7331C7.43753 22.9039 7.66918 22.9999 7.91071 22.9999H19.4464C19.6348 23 19.8186 22.9416 19.9725 22.8329C20.1264 22.7241 20.2427 22.5704 20.3055 22.3927H8.21429C8.05326 22.3927 7.89883 22.3288 7.78497 22.2149C7.67111 22.101 7.60714 21.9466 7.60714 21.7856C7.60714 21.6246 7.67111 21.4701 7.78497 21.3563C7.89883 21.2424 8.05326 21.1784 8.21429 21.1784H20.3571V20.5713H7.91071Z" fill="#3351A1"/>
</svg>
