<svg width="17" height="16" viewBox="0 0 17 16" fill="none" xmlns="http://www.w3.org/2000/svg">
<path d="M15.648 7.72813C15.6007 7.64467 15.5371 7.5715 15.4612 7.51291C15.3852 7.45431 15.2983 7.41146 15.2055 7.38688C14.669 7.25062 14.1118 7.21522 13.5624 7.2825C13.9049 5.94125 13.7111 4.885 13.5155 4.2825C13.4581 4.1024 13.3356 3.95016 13.172 3.85551C13.0083 3.76086 12.8153 3.7306 12.6305 3.77063C11.9303 3.92836 11.2705 4.22995 10.693 4.65625C10.3117 3.77065 9.71173 2.99643 8.94927 2.40625C8.8196 2.30741 8.66107 2.25388 8.49802 2.25388C8.33498 2.25388 8.17644 2.30741 8.04677 2.40625C7.28431 2.99643 6.6843 3.77065 6.30302 4.65625C5.72551 4.23003 5.06573 3.92844 4.36552 3.77063C4.18077 3.7306 3.98773 3.76086 3.82409 3.85551C3.66045 3.95016 3.53795 4.1024 3.48052 4.2825C3.2849 4.8875 3.09115 5.94375 3.43365 7.2825C2.88482 7.21546 2.32831 7.25085 1.7924 7.38688C1.69965 7.41146 1.61274 7.45431 1.53676 7.51291C1.46077 7.5715 1.39725 7.64467 1.3499 7.72813C1.29969 7.81436 1.2672 7.90974 1.25432 8.00869C1.24144 8.10764 1.24844 8.20817 1.2749 8.30438C1.4774 9.05438 2.0999 10.48 3.9949 11.6119C5.8899 12.7438 7.59052 12.75 8.4999 12.75C9.40927 12.75 11.1005 12.75 13.0043 11.6119C14.908 10.4738 15.5218 9.05375 15.7243 8.30438C15.7505 8.20808 15.7573 8.10752 15.7442 8.00856C15.7312 7.90961 15.6984 7.81427 15.648 7.72813ZM12.7374 4.25688C12.8015 4.24359 12.8683 4.25476 12.9246 4.28818C12.9809 4.32159 13.0227 4.37485 13.0418 4.4375C13.2918 5.21875 13.5418 6.83438 12.3686 8.875C11.7155 10.0119 10.7993 10.8875 9.98677 11.465C10.6249 10.625 11.2499 9.3275 11.2499 7.44938C11.2565 6.6635 11.1323 5.882 10.8824 5.13688C11.4284 4.7106 12.0618 4.41011 12.7374 4.25688ZM3.95802 4.4375C3.97758 4.37535 4.01961 4.32273 4.07589 4.28991C4.13218 4.25708 4.19867 4.24642 4.2624 4.26C4.9377 4.41231 5.57108 4.71171 6.1174 5.13688C5.86753 5.882 5.74334 6.6635 5.7499 7.44938C5.7499 9.3275 6.3749 10.6256 7.01302 11.4638C6.20052 10.8863 5.28427 10.0106 4.63115 8.87375C3.4574 6.83125 3.70552 5.21563 3.95802 4.4375ZM4.25302 11.1875C2.50927 10.1456 1.94052 8.855 1.75927 8.17813C1.75005 8.14549 1.74757 8.11131 1.75197 8.07768C1.75638 8.04405 1.76758 8.01167 1.7849 7.9825C1.79951 7.95615 1.81926 7.933 1.84299 7.91442C1.86672 7.89585 1.89393 7.88223 1.92302 7.87438C2.46944 7.73722 3.03851 7.71593 3.59365 7.81188C3.75342 8.26729 3.95556 8.70671 4.1974 9.12438C5.0274 10.5681 6.23865 11.6038 7.21427 12.1938C6.16553 12.0758 5.15504 11.731 4.25302 11.1831V11.1875ZM8.50302 12.2088C8.09569 11.9251 7.73546 11.5792 7.43552 11.1838C6.64802 10.1613 6.2499 8.90625 6.2499 7.44938C6.2499 4.68375 7.71802 3.2775 8.34927 2.80188C8.39266 2.76912 8.44554 2.75141 8.4999 2.75141C8.55426 2.75141 8.60714 2.76912 8.65052 2.80188C9.28177 3.2775 10.7499 4.68375 10.7499 7.44938C10.7499 8.90625 10.3518 10.1613 9.5674 11.1794C9.26746 11.5749 8.90723 11.9207 8.4999 12.2044L8.50302 12.2088ZM15.2436 8.17813C15.0611 8.855 14.4936 10.1456 12.7499 11.1875C11.8478 11.7349 10.8373 12.0794 9.78865 12.1969C10.7643 11.6069 11.9761 10.5719 12.8055 9.1275C13.0474 8.70984 13.2495 8.27041 13.4093 7.815C13.9644 7.71877 14.5335 7.74007 15.0799 7.8775C15.109 7.88536 15.1362 7.89898 15.1599 7.91755C15.1837 7.93612 15.2034 7.95927 15.218 7.98563C15.2499 8.04295 15.258 8.11052 15.2405 8.17375L15.2436 8.17813Z" fill="black"/>
</svg>
