<svg xmlns="http://www.w3.org/2000/svg" width="11" height="12" viewBox="0 0 11 12" fill="none">
<path d="M2.13897 5.07563L1.9082 2.19563L5.83128 1.95563L9.29282 2.43563L6.29282 4.83563L2.83128 6.99563L2.13897 5.07563Z" fill="#FF1C1C"/>
<path d="M5.90866 11.4574L5.41496 11.4048M5.41496 11.4048L4.44388 11.3014M5.41496 11.4048C6.58559 11.2603 7.7511 11.0579 8.92863 11.0298C9.26388 11.0218 9.14896 10.8995 8.88827 10.8363C8.74782 10.8022 8.60503 10.7771 8.46108 10.7584M5.41496 11.4048C4.91108 11.467 4.40626 11.5185 3.89911 11.5407C3.61404 11.5532 3.19924 11.5612 2.90597 11.5585C2.76525 11.5572 2.53592 11.5739 2.39243 11.5135C2.27552 11.4643 2.3635 11.323 2.43248 11.2764C2.43878 11.2722 2.44515 11.268 2.45158 11.2639M4.44388 11.3014L3.26377 11.1757M4.44388 11.3014C5.79369 11.2375 7.12806 10.9882 8.46108 10.7584M4.44388 11.3014C4.34042 11.3063 4.23686 11.3101 4.1332 11.3127C3.58826 11.3265 3.03945 11.3228 2.49645 11.2678L2.49219 11.2674C2.47961 11.2661 2.46699 11.2648 2.45435 11.2635M3.26377 11.1757L2.75942 11.122M3.26377 11.1757C3.96195 11.0867 4.65613 10.9598 5.35282 10.8614C5.79819 10.7985 6.24372 10.7428 6.68979 10.6922M3.26377 11.1757C3.03078 11.2054 2.79733 11.231 2.5632 11.2498C2.54704 11.2511 2.50798 11.2566 2.45435 11.2635M2.75942 11.122L2.12351 11.0543M2.75942 11.122C2.65009 11.1592 2.545 11.2041 2.45244 11.2633M2.75942 11.122C2.93144 11.0636 3.11397 11.0245 3.27483 10.98C3.37912 10.9511 3.48362 10.9231 3.58831 10.896M2.12351 11.0543C2.06577 11.0643 2.00911 11.0779 1.95618 11.0983C1.88598 11.1253 1.92484 11.1423 1.97037 11.1616C2.12276 11.2259 2.28939 11.2465 2.45244 11.2633M2.12351 11.0543C2.21135 11.0391 2.30167 11.0321 2.38509 11.0223C2.78544 10.9751 3.18688 10.9336 3.58831 10.896M2.12351 11.0543L1.70449 11.0097M1.70449 11.0097C1.64937 11.0288 1.60348 11.0602 1.5976 11.1199C1.57366 11.3631 2.1861 11.2978 2.45158 11.2639M1.70449 11.0097C1.75783 10.9912 1.81983 10.9843 1.86256 10.9744C2.21141 10.8934 2.57255 10.8678 2.92497 10.7998C3.26031 10.7352 3.58622 10.6588 3.92714 10.6903C4.07109 10.7036 4.2215 10.7118 4.37098 10.7087M1.70449 11.0097L0.978026 10.9323C0.945406 10.9289 0.842912 10.918 0.903358 10.8549C0.940247 10.8164 1.01733 10.7917 1.05937 10.7788C1.37929 10.6807 1.71336 10.6164 2.03867 10.5433C3.16415 10.2903 4.29546 10.0705 5.44524 9.97922C6.50089 9.89544 7.57015 9.90428 8.62366 10.0165L8.6327 10.0174C9.0269 10.0594 9.47482 10.1071 9.81505 10.3422C10.159 10.5799 9.46917 10.5914 9.38259 10.6051C9.25494 10.6252 9.12731 10.6459 8.99969 10.667M8.99969 10.667C8.82015 10.6968 8.64063 10.7274 8.46108 10.7584M8.99969 10.667C8.92837 10.6184 8.85835 10.5637 8.79211 10.5306C8.5744 10.4219 8.37977 10.39 8.13379 10.391C8.08248 10.3912 8.03118 10.3905 7.97987 10.389M8.99969 10.667C9.07204 10.7164 9.14572 10.7594 9.21811 10.7671C9.2729 10.773 9.32911 10.7756 9.38347 10.7847C9.48873 10.8025 9.30692 10.8744 9.27245 10.8752C9.22145 10.8764 8.79902 10.8163 8.98662 10.7425M8.46108 10.7584C8.14479 10.7171 7.82288 10.7062 7.50773 10.697C7.2351 10.689 6.96242 10.6879 6.68979 10.6922M2.45435 11.2635L2.45244 11.2633M2.45435 11.2635C2.45343 11.2636 2.45251 11.2637 2.45158 11.2639M2.45244 11.2633L2.45158 11.2639M3.58831 10.896C3.67674 10.8877 3.76517 10.8796 3.85359 10.8717C4.79625 10.787 5.74281 10.707 6.68979 10.6922M3.58831 10.896C3.84814 10.8287 4.10914 10.7667 4.37098 10.7087M6.68979 10.6922C7.113 10.6441 7.5367 10.6007 7.96122 10.5599C8.36578 10.5211 8.21851 10.4441 7.97987 10.389M4.37098 10.7087C4.64746 10.6474 4.92489 10.5905 5.20286 10.5365C5.30682 10.5163 5.41211 10.4961 5.51844 10.4764M4.37098 10.7087C4.4968 10.706 4.62195 10.6953 4.74202 10.6728C5.00436 10.6236 5.25874 10.5389 5.51844 10.4764M5.51844 10.4764C5.67845 10.4468 5.84082 10.4184 6.00452 10.3934M5.51844 10.4764C5.59011 10.4592 5.66218 10.4436 5.73494 10.431C5.82539 10.4153 5.91515 10.403 6.00452 10.3934M6.00452 10.3934C6.64914 10.2948 7.31443 10.2479 7.9381 10.3798C7.95227 10.3828 7.96622 10.3859 7.97987 10.389M6.00452 10.3934C6.38158 10.3528 6.75158 10.3597 7.13655 10.3563C7.41806 10.3537 7.69896 10.3813 7.97987 10.389M1.67708 1.43413C1.49603 1.43413 1.4054 1.42099 1.27352 1.26859C1.19323 1.17581 1.21552 1.02065 1.28354 0.929697C1.36881 0.815687 1.48195 0.707995 1.57682 0.594712C1.6101 0.554975 1.69726 0.422229 1.74476 0.508685C1.77015 0.554894 1.87381 0.579543 1.92023 0.61296C2.05097 0.707099 2.20234 0.841853 2.3075 0.96489C2.41263 1.0879 2.4008 1.16957 2.35387 1.30379C2.32097 1.39789 2.16085 1.38721 2.08817 1.38721C1.95674 1.38721 1.89487 1.40766 1.81244 1.29336M1.78972 1.45781C1.78972 1.98862 1.79394 2.51938 1.82732 3.04931C1.90816 4.33283 2.21567 5.60878 2.56803 6.83842C2.72846 7.39831 2.91846 7.94843 3.07562 8.50944C3.11079 8.63499 3.15806 8.75526 3.21098 8.8718C3.30504 9.07895 3.36527 9.30539 3.47166 9.50657C3.54245 9.64042 3.57948 9.78129 3.63459 9.92237C3.64842 9.95777 3.71362 10.1622 3.70729 10.1622M1.92516 1.99717H6.55489C7.20553 1.99717 7.84899 1.97562 8.49251 2.0858C8.67093 2.11635 8.84472 2.15813 9.02141 2.1966C9.14933 2.22444 9.28491 2.29842 9.41495 2.30217C9.46576 2.30364 9.49764 2.30199 9.47135 2.36213C9.4121 2.4977 9.3033 2.55984 9.18936 2.64889C8.54988 3.14864 7.94239 3.68854 7.2743 4.14915C6.33531 4.79653 5.31244 5.31189 4.34405 5.91011C4.22648 5.98274 4.10787 6.05985 3.98811 6.12778C3.83647 6.21381 3.70446 6.42805 3.59457 6.56704C3.54937 6.62422 3.53192 6.63209 3.46924 6.64395C3.35567 6.66542 3.23212 6.84834 3.14839 6.92419C3.13885 6.93283 2.9629 7.09994 2.9629 7.06496" stroke="black" stroke-width="1.25" stroke-linecap="round"/>
</svg>