<svg xmlns="http://www.w3.org/2000/svg" width="49" height="48" viewBox="0 0 49 48" fill="none">
<path d="M26.9 2.4C15.1208 2.4 7.70482 6.2208 8.20402 9.48C8.34802 10.4136 8.74402 14.148 9.24562 17.3352C3.47362 19.5768 1.56082 23.2128 1.81762 26.1768C2.12242 29.6832 5.27602 33.4368 12.2048 34.0848C16.16 34.4544 20.9192 32.2848 24.0032 28.5768C23.6299 27.9407 23.4762 27.1995 23.5659 26.4674C23.6556 25.7354 23.9836 25.0532 24.4995 24.526C25.0153 23.9989 25.6903 23.6561 26.4202 23.5506C27.1502 23.445 27.8945 23.5826 28.5386 23.9421C29.1826 24.3015 29.6904 24.8629 29.9838 25.5396C30.2771 26.2163 30.3397 26.9707 30.1618 27.6865C29.9839 28.4022 29.5754 29.0396 28.9994 29.5002C28.4234 29.9608 27.7118 30.2191 26.9744 30.2352C23.3048 34.9704 17.7152 37.8288 12.4208 37.4952C12.5432 38.2728 12.5888 39.768 12.6512 40.1664C12.8672 41.556 18.284 45.5904 26.9 45.6C35.516 45.5904 40.9328 41.556 41.1512 40.1688C41.3624 38.784 45.0896 12.7872 45.596 9.48C46.0952 6.2208 38.6768 2.4 26.9 2.4ZM5.16322 25.884C5.03122 24.3408 6.25522 22.2888 9.78082 20.7504L11.324 30.528C7.47442 29.7768 5.32882 27.7704 5.16322 25.884ZM26.9 14.4576C18.284 14.4528 12.1712 11.256 12.1712 10.0608C12.1664 8.8752 18.284 5.7648 26.9 5.7696C35.516 5.7648 41.6336 8.8752 41.6288 10.0608C41.6288 11.256 35.516 14.4528 26.9 14.4576Z" fill="#E0E0E0"/>
</svg>