<svg xmlns="http://www.w3.org/2000/svg" width="16" height="16" viewBox="0 0 16 16" fill="none">
<path fill-rule="evenodd" clip-rule="evenodd" d="M4.4001 5.51878C4.36736 5.30711 4.3427 5.09784 4.32676 4.88855C4.30275 4.57461 4.3176 4.25827 4.30908 3.94433C4.30537 3.81114 4.29075 3.46391 4.29664 3.41397C4.35012 2.97874 4.67251 2.91213 4.7668 2.90024C4.81242 2.89311 5.28084 2.83605 5.3819 3.40209C5.50588 4.09419 5.54561 4.79103 5.50174 5.4736C5.60411 6.05391 5.77917 6.63183 6.01032 7.15507C6.93013 9.2361 8.68287 9.43826 10.5819 9.41923C10.8739 9.41448 11.1164 9.6642 11.1317 9.98051C11.147 10.2992 10.9296 10.5751 10.6388 10.6036C9.57737 10.7154 7.69408 11.643 7.04297 12.6086C6.90676 12.8107 6.82753 13.2983 6.72276 13.7763C6.57652 14.4399 6.40256 15.0963 6.20764 15.3722C6.17839 15.415 5.82281 15.8526 5.71673 15.9168C5.46179 16.069 5.25771 15.981 5.1418 15.9002C5.0259 15.8193 4.89471 15.66 4.84233 15.396C4.78754 15.1201 4.83382 14.554 4.8253 14.4327C4.79431 13.9927 4.71355 13.1294 4.54876 12.3874C4.45992 11.9878 4.36518 11.6192 4.20846 11.436C3.62829 10.7582 2.70062 10.8581 1.91941 10.9699C1.8297 10.9818 1.73999 10.9961 1.6505 11.008C1.33248 11.1102 0.994796 11.1863 0.637917 11.2315C0.0989967 11.3005 0.0103832 10.7606 0.00558116 10.7249C-0.00445947 10.6464 -0.0417884 10.2421 0.364421 10.0804C0.408731 10.0638 0.735709 9.98527 0.861654 9.95436C1.03715 9.91155 1.2146 9.87826 1.39271 9.84734C3.23255 9.22422 4.23181 7.47376 4.4001 5.51878ZM5.03157 7.68069C5.72612 9.24563 6.78017 10.0019 8.02957 10.3444H8.02936C7.24925 10.7892 6.53963 11.3457 6.16354 11.9046C6.02079 12.1163 5.88983 12.542 5.77174 13.02C5.70779 12.5753 5.62136 12.102 5.5072 11.6977C5.37732 11.2363 5.20248 10.8534 5.00734 10.6251C4.6306 10.1851 4.15781 9.9401 3.64945 9.8188C4.258 9.23136 4.71944 8.49884 5.03157 7.68069Z" fill="black"/>
<path fill-rule="evenodd" clip-rule="evenodd" d="M9.41204 3.5779C9.76275 3.4493 10.1318 3.27838 10.4164 3.03093C10.7544 2.73702 10.8919 2.35849 10.9842 1.96004C11.1027 1.44813 11.1501 0.902817 11.2938 0.390079C11.347 0.199669 11.4494 0.127693 11.4934 0.0957506C11.6044 0.0150648 11.7167 -0.00650248 11.8223 0.00158684C11.9475 0.0109207 12.1194 0.0596607 12.2325 0.275583C12.2486 0.306489 12.2696 0.353575 12.2837 0.418082C12.2939 0.465374 12.3006 0.61326 12.3115 0.674241C12.3387 0.824412 12.3615 0.974588 12.3828 1.12559C12.454 1.62816 12.4949 2.05503 12.7196 2.51674C13.0246 3.14356 13.3302 3.52707 13.7446 3.69695C14.1453 3.86123 14.6244 3.83033 15.2365 3.70152C15.2948 3.687 15.3524 3.67455 15.4094 3.66439C15.6793 3.61585 15.9373 3.79818 15.9903 4.07487C16.0434 4.35136 15.8718 4.62079 15.6044 4.68157C15.5485 4.69422 15.4935 4.70625 15.4391 4.71724C14.6119 4.92798 13.6543 5.68008 13.0978 6.33864C12.9262 6.5417 12.6751 7.1094 12.4189 7.47155C12.2298 7.73871 12.0174 7.91481 11.839 7.97703C11.7195 8.01893 11.6187 8.01251 11.5355 7.99135C11.4145 7.96065 11.3142 7.89323 11.2372 7.786C11.1952 7.7273 11.1563 7.64869 11.1378 7.5483C11.1289 7.49997 11.1279 7.37718 11.1281 7.3216C11.0759 7.13679 11.012 6.95633 10.9655 6.76986C10.8544 6.32494 10.6365 6.04327 10.3777 5.67116C10.1356 5.32291 9.87564 5.10408 9.49449 4.92943C9.4449 4.91699 9.04481 4.81618 8.90351 4.75831C8.69712 4.67348 8.59875 4.53139 8.56307 4.45486C8.5024 4.32501 8.49616 4.21156 8.50825 4.11698C8.52619 3.97739 8.58706 3.85791 8.6951 3.76146C8.76202 3.70152 8.86199 3.64323 8.99583 3.61481C9.09923 3.59262 9.37354 3.57976 9.41204 3.5779ZM11.7592 2.85276C11.7777 2.89528 11.7975 2.93801 11.8185 2.98115C12.2651 3.89919 12.7646 4.41172 13.3717 4.66041L13.392 4.6685C12.9859 4.9788 12.6182 5.3256 12.3373 5.6581C12.2216 5.79499 12.0684 6.07937 11.9029 6.371C11.7526 5.86801 11.5067 5.51249 11.1975 5.06758C10.9612 4.72803 10.7137 4.4725 10.4096 4.26425C10.6456 4.13959 10.8707 3.99357 11.0668 3.82307C11.3934 3.53911 11.6092 3.21014 11.7592 2.85276Z" fill="black"/>
</svg>