<svg width="28" height="28" viewBox="0 0 28 28" fill="none" xmlns="http://www.w3.org/2000/svg">
<rect width="28" height="28" rx="4" fill="#F6F8FD"/>
<path d="M21.376 23H6.81956C5.8188 23 5 22.2012 5 21.2248V11.9495C5 11.3726 5.27293 10.84 5.77331 10.485L13.5745 5.16153C13.8901 4.94616 14.3054 4.94616 14.621 5.16153L22.4222 10.485C22.9226 10.7957 23.1956 11.3726 23.1956 11.9495V21.2248C23.1956 22.2012 22.3768 23 21.376 23Z" fill="#B8B8B8"/>
<path d="M8.89905 10.2817C8.89905 9.76897 9.31468 9.35334 9.82739 9.35334H18.3682C18.8809 9.35334 19.2965 9.76897 19.2965 10.2817V18.1726C19.2965 18.6853 18.8809 19.101 18.3682 19.101H9.82739C9.31468 19.101 8.89905 18.6853 8.89905 18.1726V10.2817Z" fill="white"/>
<path d="M21.376 23H6.81956C5.8188 23 5 22.1715 5 21.1588V11.9527L13.6282 17.0115C13.9182 17.1815 14.2774 17.1815 14.5673 17.0115L23.1956 11.9527V21.1588C23.1956 22.1715 22.3768 23 21.376 23Z" fill="#D6D6D6"/>
<path d="M14 11C13.5266 11 13.1429 11.3838 13.1429 11.8571V13.1429H11.8572C11.3838 13.1429 11 13.5266 11 14C11 14.4734 11.3838 14.8571 11.8572 14.8571H13.1429V16.1429C13.1429 16.6162 13.5266 17 14 17C14.4734 17 14.8572 16.6162 14.8572 16.1429V14.8571H16.1429C16.6163 14.8571 17 14.4734 17 14C17 13.5266 16.6163 13.1429 16.1429 13.1429H14.8572V11.8571C14.8572 11.3838 14.4734 11 14 11Z" fill="#FFB118"/>
</svg>
