<svg width="28" height="28" viewBox="0 0 28 28" fill="none" xmlns="http://www.w3.org/2000/svg">
<rect width="28" height="28" rx="4" fill="#F6F8FD"/>
<path d="M9.84624 12.9232H16.7694V6.69232C16.7694 6.50871 16.6965 6.33261 16.5667 6.20278C16.4368 6.07294 16.2607 6 16.0771 6H5.69232C5.50871 6 5.33261 6.07294 5.20278 6.20278C5.07294 6.33261 5 6.50871 5 6.69232V20.5387C5 20.7223 5.07294 20.8984 5.20278 21.0283C5.33261 21.1581 5.50871 21.231 5.69232 21.231H16.0771C16.2607 21.231 16.4368 21.1581 16.5667 21.0283C16.6965 20.8984 16.7694 20.7223 16.7694 20.5387V14.3078H9.84624V12.9232ZM22.7974 13.1261L18.8464 9.17472L17.8672 10.1539L20.6365 12.9232H16.7694V14.3078H20.6365L17.8672 17.0771L18.8464 18.0563L22.7974 14.1049C22.9271 13.9751 23 13.7991 23 13.6155C23 13.432 22.9271 13.256 22.7974 13.1261Z" fill="#067DFD"/>
</svg>
