<svg xmlns="http://www.w3.org/2000/svg" width="90" height="20" viewBox="0 0 90 20" fill="none">
<path d="M6.38948 19.0909C5.18976 19.0909 4.10463 18.8216 3.13408 18.2828C2.177 17.7441 1.41539 16.9562 0.849234 15.9192C0.283078 14.8687 0 13.6162 0 12.1616C0 10.1145 0.370697 8.30976 1.11209 6.74748C1.86697 5.18519 2.8847 3.9798 4.16529 3.13131C5.45936 2.28283 6.88823 1.85859 8.4519 1.85859C9.65161 1.85859 10.73 2.12795 11.6871 2.66667C12.6576 3.20539 13.426 4 13.9921 5.05051C14.5583 6.08754 14.8414 7.33333 14.8414 8.78788C14.8414 10.835 14.4639 12.6397 13.7091 14.202C12.9677 15.7643 11.9499 16.9697 10.6559 17.8182C9.37527 18.6667 7.95314 19.0909 6.38948 19.0909ZM6.59167 16.7071C7.64311 16.7071 8.56648 16.3838 9.36179 15.7374C10.1706 15.0909 10.7907 14.1953 11.222 13.0505C11.6534 11.8923 11.8691 10.5859 11.8691 9.13131C11.8691 7.52862 11.5321 6.3165 10.8581 5.49495C10.1841 4.65993 9.31461 4.24242 8.2497 4.24242C7.21175 4.24242 6.29512 4.56566 5.4998 5.21212C4.70449 5.84512 4.08441 6.74074 3.63957 7.89899C3.19474 9.04377 2.97232 10.3502 2.97232 11.8182C2.97232 13.4209 3.30932 14.6397 3.98331 15.4747C4.65731 16.2963 5.52676 16.7071 6.59167 16.7071Z" fill="#E0E0E0"/>
<path d="M17.6696 6.9697C17.3731 6.9697 17.1372 6.90236 16.9619 6.76768C16.7867 6.633 16.6991 6.41751 16.6991 6.12121C16.6991 6 16.7193 5.85859 16.7597 5.69697C16.908 5.07744 17.0159 4.50505 17.0833 3.9798C17.1641 3.45455 17.2046 2.86869 17.2046 2.22222C17.2046 1.54882 17.3596 1.0303 17.6696 0.666667C17.9931 0.303031 18.4043 0.121213 18.903 0.121213C19.3883 0.121213 19.7523 0.255893 19.9949 0.525253C20.251 0.781145 20.3791 1.13131 20.3791 1.57576C20.3791 2.04714 20.2375 2.6734 19.9545 3.45455C19.6714 4.23569 19.3277 4.99663 18.9233 5.73737C18.6537 6.23569 18.438 6.56566 18.2762 6.72727C18.1279 6.88889 17.9257 6.9697 17.6696 6.9697Z" fill="#E0E0E0"/>
<path d="M23.5198 19.5354C22.8188 19.5354 22.2796 19.3737 21.9022 19.0505C21.5383 18.7273 21.3563 18.3636 21.3563 17.9596C21.3563 17.6094 21.4843 17.3064 21.7405 17.0505C21.9966 16.7946 22.374 16.6667 22.8728 16.6667C23.048 16.6667 23.2502 16.6869 23.4794 16.7273C23.722 16.7542 23.904 16.7744 24.0253 16.7879C24.0118 16.4377 23.9309 16.1077 23.7827 15.798C23.6479 15.4882 23.4726 15.1919 23.2569 14.9091C23.0413 14.6128 22.8391 14.3569 22.6503 14.1414C22.2325 14.936 21.8146 15.596 21.3967 16.1212C20.9923 16.6465 20.5475 17.1448 20.0622 17.6162C19.8196 17.8586 19.5634 17.9798 19.2938 17.9798C19.0782 17.9798 18.9029 17.9057 18.7681 17.7576C18.6333 17.596 18.5659 17.4007 18.5659 17.1717C18.5659 16.9024 18.6603 16.6532 18.849 16.4242L19.1119 16.101C19.8533 15.1852 20.4127 14.431 20.7901 13.8384C21.0328 13.4478 21.2754 12.9832 21.518 12.4444C21.7742 11.9057 22.1044 11.1717 22.5088 10.2424C22.7649 9.64983 23.2974 9.35354 24.1062 9.35354C24.4836 9.35354 24.7465 9.38721 24.8948 9.45455C25.043 9.52189 25.1172 9.62963 25.1172 9.77778C25.1172 9.85859 25.0902 9.98653 25.0363 10.1616C24.9824 10.3367 24.9082 10.5118 24.8139 10.6869C24.5712 11.1717 24.4499 11.5825 24.4499 11.9192C24.4499 12.1212 24.5173 12.3434 24.6521 12.5859C24.8004 12.8283 25.0228 13.1313 25.3194 13.495C25.7507 14.0606 26.0742 14.5455 26.2899 14.9495C26.5191 15.3401 26.6337 15.771 26.6337 16.2424C26.6337 16.8081 26.4989 17.3468 26.2293 17.8586C25.9731 18.3569 25.6092 18.7609 25.1374 19.0707C24.6656 19.3805 24.1264 19.5354 23.5198 19.5354Z" fill="#E0E0E0"/>
<path d="M48.8392 6.06061C48.8392 7.20539 48.4348 8.19529 47.626 9.0303C46.8172 9.85185 45.6377 10.4444 44.0875 10.8081C44.9233 11.037 45.5568 11.4141 45.9882 11.9394C46.4195 12.4512 46.6352 13.0438 46.6352 13.7172C46.6352 14.7811 46.2982 15.7037 45.6242 16.4848C44.9637 17.266 43.9931 17.8721 42.7126 18.303C41.432 18.7205 39.8885 18.9293 38.0822 18.9293C37.4082 18.9293 36.869 18.9091 36.4646 18.8687C36.4511 19.2458 36.2894 19.5286 35.9793 19.7172C35.6693 19.9057 35.2716 20 34.7864 20C34.3011 20 33.9641 19.8923 33.7754 19.6768C33.6001 19.4613 33.526 19.1448 33.553 18.7273C33.6743 16.8418 33.9102 14.8687 34.2607 12.8081C34.6111 10.734 35.056 8.73401 35.5952 6.80808C35.6895 6.47138 35.8782 6.23569 36.1613 6.10101C36.4444 5.96633 36.8151 5.89899 37.2734 5.89899C38.0957 5.89899 38.5068 6.12795 38.5068 6.58586C38.5068 6.77441 38.4664 6.9899 38.3855 7.23232C38.035 8.28283 37.6846 9.71044 37.3341 11.5152C36.9836 13.3064 36.7342 15.0168 36.5859 16.6465C37.233 16.7003 37.7587 16.7273 38.1631 16.7273C40.0503 16.7273 41.432 16.4579 42.3082 15.9192C43.1978 15.367 43.6427 14.6667 43.6427 13.8182C43.6427 13.2256 43.3865 12.7273 42.8743 12.3232C42.3756 11.9192 41.5331 11.697 40.3468 11.6566C40.0772 11.6431 39.8885 11.5758 39.7807 11.4545C39.6728 11.3333 39.6189 11.138 39.6189 10.8687C39.6189 10.4781 39.6998 10.1616 39.8616 9.91919C40.0233 9.67677 40.3199 9.54882 40.7512 9.53535C41.7083 9.50842 42.571 9.367 43.3394 9.11111C44.1212 8.85522 44.7345 8.49832 45.1794 8.0404C45.6242 7.56902 45.8466 7.02357 45.8466 6.40404C45.8466 5.6229 45.4625 5.0101 44.6941 4.56566C43.9257 4.10774 42.7463 3.87879 41.1556 3.87879C39.7133 3.87879 38.3181 4.06734 36.9701 4.44445C35.6221 4.80808 34.4763 5.27273 33.5327 5.83838C33.1014 6.09428 32.7374 6.22222 32.4409 6.22222C32.1982 6.22222 32.0095 6.14141 31.8747 5.9798C31.7534 5.80471 31.6927 5.58923 31.6927 5.33333C31.6927 4.99663 31.7601 4.70707 31.8949 4.46465C32.0432 4.22222 32.3869 3.94613 32.9261 3.63636C34.0585 2.9899 35.3862 2.48485 36.9095 2.12121C38.4327 1.75758 39.9896 1.57576 41.5802 1.57576C44.0201 1.57576 45.8399 1.98653 47.0396 2.80808C48.2393 3.62963 48.8392 4.71381 48.8392 6.06061Z" fill="#E0E0E0"/>
<path d="M50.2468 19.0909C49.6402 19.0909 49.1415 18.8148 48.7505 18.2626C48.3731 17.697 48.1844 16.9966 48.1844 16.1616C48.1844 15.1515 48.2518 14.229 48.3866 13.3939C48.5214 12.5455 48.7438 11.6498 49.0538 10.7071C49.1886 10.303 49.3774 10.0135 49.62 9.83838C49.8626 9.6633 50.2468 9.57576 50.7725 9.57576C51.0691 9.57576 51.2713 9.6229 51.3791 9.71717C51.5004 9.81145 51.5611 9.95286 51.5611 10.1414C51.5611 10.2492 51.487 10.6128 51.3387 11.2323C51.2039 11.7306 51.0961 12.1818 51.0152 12.5859C50.7456 14 50.6108 14.9428 50.6108 15.4141C50.6108 15.697 50.6445 15.899 50.7119 16.0202C50.7793 16.1279 50.8871 16.1818 51.0354 16.1818C51.2376 16.1818 51.487 15.9798 51.7835 15.5758C52.0936 15.1717 52.4171 14.5589 52.7541 13.7374C53.1046 12.9158 53.4416 11.9057 53.7651 10.7071C53.8729 10.303 54.0347 10.0135 54.2503 9.83838C54.4795 9.6633 54.8165 9.57576 55.2613 9.57576C55.5714 9.57576 55.7871 9.61616 55.9084 9.69697C56.0297 9.76431 56.0904 9.89899 56.0904 10.101C56.0904 10.4377 55.9219 11.3603 55.5849 12.8687C55.2074 14.5926 55.0187 15.6566 55.0187 16.0606C55.0187 16.3165 55.0726 16.5185 55.1805 16.6667C55.2883 16.8013 55.4298 16.8687 55.6051 16.8687C55.8747 16.8687 56.1915 16.7071 56.5554 16.3838C56.9328 16.0471 57.4316 15.5084 58.0517 14.7677C58.2134 14.5791 58.3954 14.4848 58.5976 14.4848C58.7729 14.4848 58.9077 14.5657 59.002 14.7273C59.1099 14.8889 59.1638 15.1111 59.1638 15.3939C59.1638 15.9327 59.0357 16.3502 58.7796 16.6465C58.2 17.3603 57.5731 17.9461 56.8992 18.404C56.2386 18.862 55.4838 19.0909 54.6345 19.0909C53.9875 19.0909 53.509 18.8418 53.1989 18.3434C52.9024 17.8451 52.7541 17.1448 52.7541 16.2424C52.5249 17.1583 52.1812 17.8653 51.7229 18.3636C51.2645 18.8485 50.7725 19.0909 50.2468 19.0909Z" fill="#E0E0E0"/>
<path d="M60.9818 19.0909C59.6608 19.0909 58.6296 18.7205 57.8882 17.9798C57.1603 17.2256 56.7963 16.2357 56.7963 15.0101C56.7963 13.9192 57.012 12.963 57.4433 12.1414C57.8747 11.3199 58.4341 10.6869 59.1216 10.2424C59.8091 9.79798 60.5302 9.57576 61.2851 9.57576C62.0265 9.57576 62.5994 9.79798 63.0038 10.2424C63.4217 10.6734 63.6306 11.2323 63.6306 11.9192C63.6306 12.4848 63.5026 12.963 63.2464 13.3535C63.0038 13.7441 62.6803 13.9394 62.2759 13.9394C62.0198 13.9394 61.8108 13.8788 61.6491 13.7576C61.5008 13.6364 61.4267 13.468 61.4267 13.2525C61.4267 13.1582 61.4401 13.0505 61.4671 12.9293C61.4941 12.8081 61.5143 12.7205 61.5278 12.6667C61.5952 12.4646 61.6289 12.2761 61.6289 12.101C61.6289 11.9259 61.5817 11.7912 61.4873 11.697C61.4064 11.6027 61.2851 11.5556 61.1234 11.5556C60.8133 11.5556 60.5235 11.697 60.2539 11.9798C59.9843 12.2492 59.7686 12.6195 59.6069 13.0909C59.4451 13.5623 59.3642 14.0808 59.3642 14.6465C59.3642 16.2088 60.045 16.9899 61.4064 16.9899C61.9591 16.9899 62.5522 16.8081 63.1858 16.4444C63.8328 16.0673 64.4664 15.5084 65.0865 14.7677C65.2482 14.5791 65.4302 14.4848 65.6324 14.4848C65.8076 14.4848 65.9424 14.5657 66.0368 14.7273C66.1446 14.8889 66.1985 15.1111 66.1985 15.3939C66.1985 15.9057 66.0705 16.3232 65.8144 16.6465C65.1808 17.4276 64.4192 18.0337 63.5295 18.4646C62.6533 18.8822 61.8041 19.0909 60.9818 19.0909Z" fill="#E0E0E0"/>
<path d="M75.8467 14.4848C76.022 14.4848 76.1568 14.5657 76.2511 14.7273C76.359 14.8889 76.4129 15.1111 76.4129 15.3939C76.4129 15.9327 76.2848 16.3502 76.0287 16.6465C75.4221 17.3872 74.8088 17.9798 74.1887 18.4242C73.5686 18.8687 72.834 19.0909 71.9847 19.0909C70.9468 19.0909 70.111 18.7946 69.4775 18.202C68.8439 17.6094 68.5271 16.8216 68.5271 15.8384C68.5271 15.3131 68.7967 14.936 69.3359 14.7071C69.9291 14.4512 70.3537 14.1818 70.6098 13.899C70.8659 13.6027 70.994 13.2458 70.994 12.8283C70.994 12.5859 70.94 12.404 70.8322 12.2828C70.7378 12.1616 70.6165 12.101 70.4683 12.101C70.1043 12.101 69.6999 12.3636 69.2551 12.8889C68.8237 13.4141 68.4193 14.0943 68.0419 14.9293C67.6644 15.7508 67.3679 16.5993 67.1522 17.4747C67.0039 18.1077 66.8287 18.5387 66.6265 18.7677C66.4378 18.9832 66.1345 19.0909 65.7166 19.0909C65.2987 19.0909 64.9887 18.9428 64.7865 18.6465C64.5978 18.3367 64.4697 17.8653 64.4023 17.2323C64.3349 16.5993 64.3012 15.67 64.3012 14.4444C64.3012 12.3704 64.5101 10.2088 64.928 7.9596C65.3594 5.71044 65.9862 3.82492 66.8085 2.30303C67.6442 0.767677 68.6417 0 69.801 0C70.4211 0 70.9198 0.26936 71.2973 0.808081C71.6882 1.33333 71.8836 2.0202 71.8836 2.86869C71.8836 4.22896 71.486 5.6431 70.6907 7.11111C69.8954 8.56566 68.6013 10.2694 66.8085 12.2222C66.768 12.9226 66.7478 13.6431 66.7478 14.3838C67.3948 12.7003 68.1362 11.4815 68.972 10.7273C69.8077 9.9596 70.5896 9.57576 71.3175 9.57576C71.9915 9.57576 72.5307 9.80471 72.9351 10.2626C73.353 10.7205 73.5619 11.2862 73.5619 11.9596C73.5619 12.7003 73.3732 13.3805 72.9957 14C72.6183 14.6195 71.9713 15.1717 71.0546 15.6566C71.1085 16.0202 71.2703 16.3165 71.5399 16.5455C71.823 16.7609 72.16 16.8687 72.5509 16.8687C72.9688 16.8687 73.3732 16.7071 73.7641 16.3838C74.155 16.0606 74.6672 15.5219 75.3008 14.7677C75.4626 14.5791 75.6445 14.4848 75.8467 14.4848ZM69.3764 2C69.1337 2 68.8641 2.35017 68.5676 3.05051C68.271 3.73737 67.9812 4.6734 67.6981 5.85859C67.4285 7.0303 67.2061 8.30976 67.0309 9.69697C67.8666 8.71381 68.5541 7.6431 69.0933 6.48485C69.646 5.3266 69.9223 4.27609 69.9223 3.33333C69.9223 2.90236 69.8751 2.57239 69.7808 2.34343C69.6864 2.11448 69.5516 2 69.3764 2Z" fill="#E0E0E0"/>
<path d="M83.3966 14.4848C83.5719 14.4848 83.7067 14.5657 83.801 14.7273C83.9089 14.8889 83.9628 15.1111 83.9628 15.3939C83.9628 15.9327 83.8347 16.3502 83.5786 16.6465C83.0799 17.2525 82.3722 17.8114 81.4555 18.3232C80.5524 18.835 79.5818 19.0909 78.5439 19.0909C77.1285 19.0909 76.0299 18.7071 75.248 17.9394C74.4662 17.1717 74.0753 16.1212 74.0753 14.7879C74.0753 13.8586 74.2707 12.9966 74.6617 12.202C75.0526 11.3939 75.5918 10.7542 76.2793 10.2828C76.9802 9.81145 77.7688 9.57576 78.645 9.57576C79.4268 9.57576 80.0536 9.81145 80.5254 10.2828C80.9972 10.7407 81.2331 11.367 81.2331 12.1616C81.2331 13.0909 80.8961 13.8923 80.2221 14.5657C79.5616 15.2256 78.436 15.7508 76.8454 16.1414C77.1824 16.7609 77.8227 17.0707 78.7663 17.0707C79.3729 17.0707 80.0604 16.862 80.8287 16.4444C81.6106 16.0135 82.2845 15.4545 82.8507 14.7677C83.0125 14.5791 83.1944 14.4848 83.3966 14.4848ZM78.3012 11.5556C77.8025 11.5556 77.3779 11.8451 77.0274 12.4242C76.6904 13.0034 76.5219 13.7037 76.5219 14.5253V14.5657C77.3172 14.3771 77.944 14.0943 78.4023 13.7172C78.8607 13.3401 79.0898 12.9024 79.0898 12.404C79.0898 12.1481 79.0157 11.9461 78.8674 11.798C78.7326 11.6364 78.5439 11.5556 78.3012 11.5556Z" fill="#E0E0E0"/>
<path d="M85.2483 11.495C85.2214 12.1684 85.2079 12.6936 85.2079 13.0707C85.2079 14.0404 85.2551 14.8013 85.3494 15.3535C85.4573 15.8923 85.6258 16.2828 85.8549 16.5253C86.0976 16.7542 86.4278 16.8687 86.8457 16.8687C87.0614 16.8687 87.3175 16.8013 87.6141 16.6667C87.9106 16.532 88.1802 16.3569 88.4229 16.1414C88.5711 16.0067 88.7194 15.9394 88.8677 15.9394C89.0294 15.9394 89.1575 16.0337 89.2519 16.2222C89.3597 16.3973 89.4136 16.6128 89.4136 16.8687C89.4136 17.1246 89.3597 17.3737 89.2519 17.6162C89.1575 17.8586 89.0092 18.0606 88.807 18.2222C88.1061 18.8013 87.3108 19.0909 86.4211 19.0909C85.1405 19.0909 84.2036 18.5589 83.6105 17.495C83.0174 16.4175 82.7209 15.0168 82.7209 13.2929C82.7209 12.7003 82.7411 12.101 82.7815 11.495H81.9929C81.5885 11.495 81.3122 11.4209 81.1639 11.2727C81.0291 11.1246 80.9617 10.8889 80.9617 10.5657C80.9617 9.81145 81.265 9.43434 81.8716 9.43434H83.0242C83.2533 7.95286 83.6038 6.59933 84.0756 5.37374C84.5474 4.14815 85.1135 3.17172 85.774 2.44444C86.448 1.71717 87.1692 1.35354 87.9376 1.35354C88.5037 1.35354 88.9486 1.60269 89.2721 2.10101C89.5956 2.59933 89.7574 3.22559 89.7574 3.9798C89.7574 6.06734 88.8812 7.88552 87.1288 9.43434H89.3934C89.6091 9.43434 89.7641 9.48148 89.8585 9.57576C89.9528 9.67003 90 9.84512 90 10.101C90 11.0303 89.2384 11.495 87.7152 11.495H85.2483ZM87.3916 3.29293C87.1894 3.29293 86.9603 3.54882 86.7042 4.06061C86.4615 4.55892 86.2256 5.25926 85.9965 6.16162C85.7808 7.05051 85.5988 8.0404 85.4505 9.13131C86.2458 8.44444 86.839 7.67677 87.2299 6.82828C87.6343 5.96633 87.8365 5.18519 87.8365 4.48485C87.8365 3.69024 87.6882 3.29293 87.3916 3.29293Z" fill="#E0E0E0"/>
</svg>