<svg width="163" height="36" viewBox="0 0 163 36" fill="none" xmlns="http://www.w3.org/2000/svg">
<g id="Icon Instance">
<g id="O&#226;&#128;&#153;s Bucket">
<path d="M12.0011 34.3636C9.84157 34.3636 7.88834 33.8788 6.14134 32.9091C4.41861 31.9394 3.0477 30.5212 2.02862 28.6545C1.00954 26.7636 0.5 24.5091 0.5 21.8909C0.5 18.2061 1.16726 14.9576 2.50177 12.1455C3.86054 9.33333 5.69246 7.16364 7.99752 5.63636C10.3268 4.10909 12.8988 3.34545 15.7134 3.34545C17.8729 3.34545 19.814 3.8303 21.5367 4.8C23.2837 5.7697 24.6668 7.2 25.6859 9.09091C26.7049 10.9576 27.2145 13.2 27.2145 15.8182C27.2145 19.503 26.5351 22.7515 25.1763 25.5636C23.8418 28.3758 22.0099 30.5455 19.6806 32.0727C17.3755 33.6 14.8157 34.3636 12.0011 34.3636ZM12.365 30.0727C14.2576 30.0727 15.9197 29.4909 17.3512 28.3273C18.8071 27.1636 19.9232 25.5515 20.6996 23.4909C21.4761 21.4061 21.8643 19.0545 21.8643 16.4364C21.8643 13.5515 21.2577 11.3697 20.0445 9.89091C18.8313 8.38788 17.2663 7.63636 15.3495 7.63636C13.4811 7.63636 11.8312 8.21818 10.3996 9.38182C8.96808 10.5212 7.85194 12.1333 7.05123 14.2182C6.25053 16.2788 5.85017 18.6303 5.85017 21.2727C5.85017 24.1576 6.45677 26.3515 7.66996 27.8545C8.88315 29.3333 10.4482 30.0727 12.365 30.0727Z" fill="black"/>
<path d="M32.3053 12.5455C31.7715 12.5455 31.3469 12.4242 31.0315 12.1818C30.716 11.9394 30.5583 11.5515 30.5583 11.0182C30.5583 10.8 30.5947 10.5455 30.6675 10.2545C30.9344 9.13939 31.1285 8.10909 31.2499 7.16364C31.3954 6.21818 31.4682 5.16364 31.4682 4C31.4682 2.78788 31.7473 1.85455 32.3053 1.2C32.8877 0.545455 33.6277 0.218183 34.5255 0.218183C35.399 0.218183 36.0541 0.460607 36.4908 0.945455C36.9518 1.40606 37.1824 2.03636 37.1824 2.83636C37.1824 3.68485 36.9276 4.81212 36.418 6.21818C35.9085 7.62424 35.2898 8.99394 34.5619 10.3273C34.0766 11.2242 33.6884 11.8182 33.3972 12.1091C33.1303 12.4 32.7663 12.5455 32.3053 12.5455Z" fill="black"/>
<path d="M42.8356 35.1636C41.5739 35.1636 40.6034 34.8727 39.924 34.2909C39.2689 33.7091 38.9413 33.0545 38.9413 32.3273C38.9413 31.697 39.1718 31.1515 39.6328 30.6909C40.0938 30.2303 40.7732 30 41.671 30C41.9864 30 42.3504 30.0364 42.7629 30.1091C43.1996 30.1576 43.5272 30.1939 43.7455 30.2182C43.7213 29.5879 43.5757 28.9939 43.3088 28.4364C43.0661 27.8788 42.7507 27.3455 42.3625 26.8364C41.9743 26.303 41.6103 25.8424 41.2706 25.4545C40.5184 26.8848 39.7663 28.0727 39.0141 29.0182C38.2862 29.9636 37.4855 30.8606 36.612 31.7091C36.1752 32.1455 35.7142 32.3636 35.2289 32.3636C34.8407 32.3636 34.5253 32.2303 34.2826 31.9636C34.04 31.6727 33.9187 31.3212 33.9187 30.9091C33.9187 30.4242 34.0885 29.9758 34.4282 29.5636L34.9014 28.9818C36.2359 27.3333 37.2428 25.9758 37.9222 24.9091C38.359 24.2061 38.7957 23.3697 39.2325 22.4C39.6935 21.4303 40.2879 20.1091 41.0159 18.4364C41.4769 17.3697 42.4353 16.8364 43.8911 16.8364C44.5705 16.8364 45.0436 16.897 45.3106 17.0182C45.5775 17.1394 45.7109 17.3333 45.7109 17.6C45.7109 17.7455 45.6624 17.9758 45.5653 18.2909C45.4683 18.6061 45.3348 18.9212 45.165 19.2364C44.7282 20.1091 44.5098 20.8485 44.5098 21.4545C44.5098 21.8182 44.6312 22.2182 44.8738 22.6545C45.1407 23.0909 45.5411 23.6364 46.0749 24.2909C46.8513 25.3091 47.4336 26.1818 47.8219 26.9091C48.2343 27.6121 48.4406 28.3879 48.4406 29.2364C48.4406 30.2545 48.1979 31.2242 47.7127 32.1455C47.2517 33.0424 46.5965 33.7697 45.7473 34.3273C44.8981 34.8848 43.9275 35.1636 42.8356 35.1636Z" fill="black"/>
<path d="M88.4105 10.9091C88.4105 12.9697 87.6826 14.7515 86.2268 16.2545C84.7709 17.7333 82.6478 18.8 79.8575 19.4545C81.3619 19.8667 82.5023 20.5455 83.2787 21.4909C84.0551 22.4121 84.4434 23.4788 84.4434 24.6909C84.4434 26.6061 83.8368 28.2667 82.6236 29.6727C81.4347 31.0788 79.6877 32.1697 77.3826 32.9455C75.0775 33.697 72.2993 34.0727 69.048 34.0727C67.8348 34.0727 66.8642 34.0364 66.1363 33.9636C66.112 34.6424 65.8209 35.1515 65.2628 35.4909C64.7047 35.8303 63.989 36 63.1155 36C62.242 36 61.6354 35.8061 61.2957 35.4182C60.9802 35.0303 60.8468 34.4606 60.8953 33.7091C61.1137 30.3152 61.5383 26.7636 62.1692 23.0545C62.8 19.3212 63.6007 15.7212 64.5713 12.2545C64.7411 11.6485 65.0808 11.2242 65.5904 10.9818C66.0999 10.7394 66.7672 10.6182 67.5921 10.6182C69.0722 10.6182 69.8123 11.0303 69.8123 11.8545C69.8123 12.1939 69.7395 12.5818 69.5939 13.0182C68.963 14.9091 68.3322 17.4788 67.7013 20.7273C67.0705 23.9515 66.6216 27.0303 66.3547 29.9636C67.5193 30.0606 68.4656 30.1091 69.1936 30.1091C72.5905 30.1091 75.0775 29.6242 76.6547 28.6545C78.2561 27.6606 79.0568 26.4 79.0568 24.8727C79.0568 23.8061 78.5958 22.9091 77.6738 22.1818C76.776 21.4545 75.2595 21.0545 73.1243 20.9818C72.639 20.9576 72.2993 20.8364 72.1052 20.6182C71.9111 20.4 71.814 20.0485 71.814 19.5636C71.814 18.8606 71.9596 18.2909 72.2508 17.8545C72.542 17.4182 73.0758 17.1879 73.8522 17.1636C75.5749 17.1152 77.1278 16.8606 78.5109 16.4C79.9182 15.9394 81.0222 15.297 81.8229 14.4727C82.6236 13.6242 83.0239 12.6424 83.0239 11.5273C83.0239 10.1212 82.3324 9.01818 80.9494 8.21818C79.5663 7.39394 77.4433 6.98182 74.5801 6.98182C71.9839 6.98182 69.4726 7.32121 67.0462 8C64.6198 8.65455 62.5574 9.49091 60.8589 10.5091C60.0825 10.9697 59.4274 11.2 58.8936 11.2C58.4568 11.2 58.1171 11.0545 57.8745 10.7636C57.6561 10.4485 57.5469 10.0606 57.5469 9.6C57.5469 8.99394 57.6682 8.47273 57.9109 8.03636C58.1778 7.6 58.7965 7.10303 59.7671 6.54545C61.8052 5.38182 64.1952 4.47273 66.937 3.81818C69.6788 3.16364 72.4813 2.83636 75.3444 2.83636C79.7362 2.83636 83.0118 3.57576 85.1713 5.05455C87.3308 6.53333 88.4105 8.48485 88.4105 10.9091Z" fill="black"/>
<path d="M90.9443 34.3636C89.8524 34.3636 88.9546 33.8667 88.251 32.8727C87.5716 31.8545 87.2319 30.5939 87.2319 29.0909C87.2319 27.2727 87.3532 25.6121 87.5959 24.1091C87.8385 22.5818 88.2389 20.9697 88.7969 19.2727C89.0396 18.5455 89.3792 18.0242 89.816 17.7091C90.2527 17.3939 90.9443 17.2364 91.8906 17.2364C92.4244 17.2364 92.7883 17.3212 92.9824 17.4909C93.2008 17.6606 93.31 17.9152 93.31 18.2545C93.31 18.4485 93.1765 19.103 92.9096 20.2182C92.667 21.1152 92.4729 21.9273 92.3273 22.6545C91.842 25.2 91.5994 26.897 91.5994 27.7455C91.5994 28.2545 91.66 28.6182 91.7814 28.8364C91.9027 29.0303 92.0968 29.1273 92.3637 29.1273C92.7277 29.1273 93.1765 28.7636 93.7103 28.0364C94.2684 27.3091 94.8507 26.2061 95.4573 24.7273C96.0882 23.2485 96.6948 21.4303 97.2771 19.2727C97.4712 18.5455 97.7624 18.0242 98.1506 17.7091C98.5631 17.3939 99.1697 17.2364 99.9704 17.2364C100.528 17.2364 100.917 17.3091 101.135 17.4545C101.353 17.5758 101.463 17.8182 101.463 18.1818C101.463 18.7879 101.159 20.4485 100.553 23.1636C99.8734 26.2667 99.5337 28.1818 99.5337 28.9091C99.5337 29.3697 99.6307 29.7333 99.8248 30C100.019 30.2424 100.274 30.3636 100.589 30.3636C101.074 30.3636 101.645 30.0727 102.3 29.4909C102.979 28.8848 103.877 27.9152 104.993 26.5818C105.284 26.2424 105.612 26.0727 105.976 26.0727C106.291 26.0727 106.534 26.2182 106.704 26.5091C106.898 26.8 106.995 27.2 106.995 27.7091C106.995 28.6788 106.764 29.4303 106.303 29.9636C105.26 31.2485 104.132 32.303 102.918 33.1273C101.73 33.9515 100.371 34.3636 98.8421 34.3636C97.6775 34.3636 96.8161 33.9152 96.258 33.0182C95.7242 32.1212 95.4573 30.8606 95.4573 29.2364C95.0449 30.8848 94.4261 32.1576 93.6012 33.0545C92.7762 33.9273 91.8906 34.3636 90.9443 34.3636Z" fill="black"/>
<path d="M110.267 34.3636C107.889 34.3636 106.033 33.697 104.699 32.3636C103.388 31.0061 102.733 29.2242 102.733 27.0182C102.733 25.0545 103.122 23.3333 103.898 21.8545C104.674 20.3758 105.681 19.2364 106.919 18.4364C108.156 17.6364 109.454 17.2364 110.813 17.2364C112.148 17.2364 113.179 17.6364 113.907 18.4364C114.659 19.2121 115.035 20.2182 115.035 21.4545C115.035 22.4727 114.805 23.3333 114.344 24.0364C113.907 24.7394 113.325 25.0909 112.597 25.0909C112.136 25.0909 111.76 24.9818 111.468 24.7636C111.201 24.5455 111.068 24.2424 111.068 23.8545C111.068 23.6848 111.092 23.4909 111.141 23.2727C111.189 23.0545 111.226 22.897 111.25 22.8C111.371 22.4364 111.432 22.097 111.432 21.7818C111.432 21.4667 111.347 21.2242 111.177 21.0545C111.032 20.8848 110.813 20.8 110.522 20.8C109.964 20.8 109.442 21.0545 108.957 21.5636C108.472 22.0485 108.084 22.7152 107.792 23.5636C107.501 24.4121 107.356 25.3455 107.356 26.3636C107.356 29.1758 108.581 30.5818 111.032 30.5818C112.026 30.5818 113.094 30.2545 114.234 29.6C115.399 28.9212 116.539 27.9152 117.656 26.5818C117.947 26.2424 118.274 26.0727 118.638 26.0727C118.954 26.0727 119.196 26.2182 119.366 26.5091C119.56 26.8 119.657 27.2 119.657 27.7091C119.657 28.6303 119.427 29.3818 118.966 29.9636C117.825 31.3697 116.455 32.4606 114.853 33.2364C113.276 33.9879 111.747 34.3636 110.267 34.3636Z" fill="black"/>
<path d="M137.024 26.0727C137.34 26.0727 137.582 26.2182 137.752 26.5091C137.946 26.8 138.043 27.2 138.043 27.7091C138.043 28.6788 137.813 29.4303 137.352 29.9636C136.26 31.297 135.156 32.3636 134.04 33.1636C132.924 33.9636 131.601 34.3636 130.073 34.3636C128.204 34.3636 126.7 33.8303 125.559 32.7636C124.419 31.697 123.849 30.2788 123.849 28.5091C123.849 27.5636 124.334 26.8848 125.305 26.4727C126.372 26.0121 127.137 25.5273 127.598 25.0182C128.059 24.4848 128.289 23.8424 128.289 23.0909C128.289 22.6545 128.192 22.3273 127.998 22.1091C127.828 21.8909 127.61 21.7818 127.343 21.7818C126.688 21.7818 125.96 22.2545 125.159 23.2C124.383 24.1455 123.655 25.3697 122.975 26.8727C122.296 28.3515 121.762 29.8788 121.374 31.4545C121.107 32.5939 120.792 33.3697 120.428 33.7818C120.088 34.1697 119.542 34.3636 118.79 34.3636C118.038 34.3636 117.48 34.097 117.116 33.5636C116.776 33.0061 116.545 32.1576 116.424 31.0182C116.303 29.8788 116.242 28.2061 116.242 26C116.242 22.2667 116.618 18.3758 117.37 14.3273C118.147 10.2788 119.275 6.88485 120.755 4.14545C122.26 1.38182 124.055 0 126.142 0C127.258 0 128.156 0.484849 128.835 1.45455C129.539 2.4 129.891 3.63636 129.891 5.16364C129.891 7.61212 129.175 10.1576 127.743 12.8C126.312 15.4182 123.982 18.4848 120.755 22C120.682 23.2606 120.646 24.5576 120.646 25.8909C121.811 22.8606 123.145 20.6667 124.65 19.3091C126.154 17.9273 127.561 17.2364 128.871 17.2364C130.085 17.2364 131.055 17.6485 131.783 18.4727C132.535 19.297 132.911 20.3152 132.911 21.5273C132.911 22.8606 132.572 24.0848 131.892 25.2C131.213 26.3152 130.048 27.3091 128.398 28.1818C128.495 28.8364 128.787 29.3697 129.272 29.7818C129.781 30.1697 130.388 30.3636 131.092 30.3636C131.844 30.3636 132.572 30.0727 133.275 29.4909C133.979 28.9091 134.901 27.9394 136.041 26.5818C136.333 26.2424 136.66 26.0727 137.024 26.0727ZM125.377 3.6C124.941 3.6 124.455 4.2303 123.922 5.49091C123.388 6.72727 122.866 8.41212 122.357 10.5455C121.871 12.6545 121.471 14.9576 121.156 17.4545C122.66 15.6848 123.897 13.7576 124.868 11.6727C125.863 9.58788 126.36 7.69697 126.36 6C126.36 5.22424 126.275 4.6303 126.105 4.21818C125.936 3.80606 125.693 3.6 125.377 3.6Z" fill="black"/>
<path d="M150.614 26.0727C150.929 26.0727 151.172 26.2182 151.342 26.5091C151.536 26.8 151.633 27.2 151.633 27.7091C151.633 28.6788 151.403 29.4303 150.942 29.9636C150.044 31.0545 148.77 32.0606 147.12 32.9818C145.494 33.903 143.747 34.3636 141.879 34.3636C139.331 34.3636 137.354 33.6727 135.946 32.2909C134.539 30.9091 133.836 29.0182 133.836 26.6182C133.836 24.9455 134.187 23.3939 134.891 21.9636C135.595 20.5091 136.565 19.3576 137.803 18.5091C139.064 17.6606 140.484 17.2364 142.061 17.2364C143.468 17.2364 144.597 17.6606 145.446 18.5091C146.295 19.3333 146.72 20.4606 146.72 21.8909C146.72 23.5636 146.113 25.0061 144.9 26.2182C143.711 27.4061 141.685 28.3515 138.822 29.0545C139.428 30.1697 140.581 30.7273 142.279 30.7273C143.371 30.7273 144.609 30.3515 145.992 29.6C147.399 28.8242 148.612 27.8182 149.631 26.5818C149.922 26.2424 150.25 26.0727 150.614 26.0727ZM141.442 20.8C140.544 20.8 139.78 21.3212 139.149 22.3636C138.543 23.4061 138.239 24.6667 138.239 26.1455V26.2182C139.671 25.8788 140.799 25.3697 141.624 24.6909C142.449 24.0121 142.862 23.2242 142.862 22.3273C142.862 21.8667 142.728 21.503 142.461 21.2364C142.219 20.9455 141.879 20.8 141.442 20.8Z" fill="black"/>
<path d="M153.947 20.6909C153.898 21.903 153.874 22.8485 153.874 23.5273C153.874 25.2727 153.959 26.6424 154.129 27.6364C154.323 28.6061 154.626 29.3091 155.039 29.7455C155.476 30.1576 156.07 30.3636 156.822 30.3636C157.21 30.3636 157.671 30.2424 158.205 30C158.739 29.7576 159.224 29.4424 159.661 29.0545C159.928 28.8121 160.195 28.6909 160.462 28.6909C160.753 28.6909 160.984 28.8606 161.153 29.2C161.347 29.5152 161.445 29.903 161.445 30.3636C161.445 30.8242 161.347 31.2727 161.153 31.7091C160.984 32.1455 160.717 32.5091 160.353 32.8C159.091 33.8424 157.659 34.3636 156.058 34.3636C153.753 34.3636 152.067 33.4061 150.999 31.4909C149.931 29.5515 149.398 27.0303 149.398 23.9273C149.398 22.8606 149.434 21.7818 149.507 20.6909H148.087C147.359 20.6909 146.862 20.5576 146.595 20.2909C146.352 20.0242 146.231 19.6 146.231 19.0182C146.231 17.6606 146.777 16.9818 147.869 16.9818H149.943C150.356 14.3152 150.987 11.8788 151.836 9.67273C152.685 7.46667 153.704 5.70909 154.893 4.4C156.106 3.09091 157.405 2.43636 158.788 2.43636C159.807 2.43636 160.607 2.88485 161.19 3.78182C161.772 4.67879 162.063 5.80606 162.063 7.16364C162.063 10.9212 160.486 14.1939 157.332 16.9818H161.408C161.796 16.9818 162.075 17.0667 162.245 17.2364C162.415 17.4061 162.5 17.7212 162.5 18.1818C162.5 19.8545 161.129 20.6909 158.387 20.6909H153.947ZM157.805 5.92727C157.441 5.92727 157.029 6.38788 156.567 7.30909C156.131 8.20606 155.706 9.46667 155.294 11.0909C154.905 12.6909 154.578 14.4727 154.311 16.4364C155.743 15.2 156.81 13.8182 157.514 12.2909C158.242 10.7394 158.606 9.33333 158.606 8.07273C158.606 6.64242 158.339 5.92727 157.805 5.92727Z" fill="black"/>
</g>
</g>
</svg>
