<svg width="17" height="16" viewBox="0 0 17 16" fill="none" xmlns="http://www.w3.org/2000/svg">
<path fill-rule="evenodd" clip-rule="evenodd" d="M10.9598 2.75C11.2129 2.74992 11.4641 2.79954 11.699 2.89646C11.9339 2.9934 12.1485 3.13601 12.3302 3.31706L12.9236 3.90951C13.2903 4.27521 13.5 4.77528 13.5 5.30104C13.5 5.82681 13.2903 6.32688 12.9236 6.69258L6.9146 12.6822C6.54817 13.0481 6.05513 13.25 5.54476 13.25H3.50604C3.22656 13.25 3 13.0156 3 12.7265V10.7081C2.99993 10.1824 3.20948 9.68228 3.57604 9.31655L9.58967 3.31791C9.77118 3.13679 9.9858 2.99399 10.2206 2.89692C10.4555 2.79985 10.7066 2.75008 10.9598 2.75ZM11.324 3.86905C11.2092 3.82165 11.0854 3.79705 10.9601 3.79709C10.8347 3.79713 10.711 3.82181 10.5961 3.86927C10.4813 3.91673 10.3782 3.98577 10.2923 4.07152L4.2786 10.0702C4.10556 10.2429 4.01204 10.4727 4.01208 10.7079V12.2029H5.54476C5.79851 12.2029 6.03796 12.1023 6.21173 11.9288L12.2212 5.93869C12.3943 5.76604 12.4879 5.53622 12.4879 5.30104C12.4879 5.06583 12.3944 4.83606 12.2212 4.6634L11.628 4.07111C11.542 3.98541 11.4389 3.91644 11.324 3.86905Z" fill="black"/>
</svg>
