<svg width="17" height="16" viewBox="0 0 17 16" fill="none" xmlns="http://www.w3.org/2000/svg">
<path fill-rule="evenodd" clip-rule="evenodd" d="M8.00892 2.50488C8.18418 2.33187 8.46594 2.33187 8.6412 2.50488L11.3003 5.12988C11.4772 5.30448 11.479 5.58939 11.3044 5.76626C11.1298 5.94313 10.8449 5.94497 10.668 5.77037L8.77506 3.90168V10.2626C8.77506 10.5112 8.57359 10.7126 8.32506 10.7126C8.07653 10.7126 7.87506 10.5112 7.87506 10.2626V3.90168L5.98211 5.77037C5.80524 5.94497 5.52032 5.94313 5.34573 5.76626C5.17113 5.58939 5.17297 5.30448 5.34983 5.12988L8.00892 2.50488ZM3.45006 8.50012C3.69859 8.50012 3.90006 8.70159 3.90006 8.95012V12.4501C3.90006 12.561 3.94461 12.6684 4.02581 12.7486C4.10721 12.829 4.21883 12.8751 4.33642 12.8751H12.3137C12.4313 12.8751 12.5429 12.829 12.6243 12.7486C12.7055 12.6684 12.7501 12.561 12.7501 12.4501V8.95012C12.7501 8.70159 12.9515 8.50012 13.2001 8.50012C13.4486 8.50012 13.6501 8.70159 13.6501 8.95012V12.4501C13.6501 12.8034 13.5078 13.1411 13.2566 13.3891C13.0055 13.6369 12.6663 13.7751 12.3137 13.7751H4.33642C3.98386 13.7751 3.64458 13.6369 3.39353 13.3891C3.14229 13.1411 3.00006 12.8034 3.00006 12.4501V8.95012C3.00006 8.70159 3.20153 8.50012 3.45006 8.50012Z" fill="black"/>
</svg>
