<svg xmlns="http://www.w3.org/2000/svg" width="17" height="16" viewBox="0 0 17 16" fill="none">
<path fill-rule="evenodd" clip-rule="evenodd" d="M12.3051 0.5C12.6235 0.499905 12.9393 0.559973 13.2347 0.677309C13.5301 0.794658 13.8 0.967299 14.0285 1.18648L14.7747 1.9037C15.2359 2.34642 15.4995 2.95181 15.4995 3.5883C15.4995 4.22479 15.2359 4.83018 14.7747 5.27289L7.21819 12.5239C6.75739 12.9669 6.13737 13.2113 5.49557 13.2113H2.93182C2.58036 13.2113 2.29545 12.9275 2.29545 12.5775V10.1341C2.29545 10.134 2.29545 10.1341 2.29545 10.1341C2.29537 9.49769 2.55888 8.89223 3.01984 8.44947L10.5822 1.18752C10.5821 1.18755 10.5822 1.18748 10.5822 1.18752C10.8104 0.968247 11.0803 0.795371 11.3756 0.677864C11.6709 0.560351 11.9867 0.500095 12.3051 0.5ZM12.7632 1.85472C12.6188 1.79735 12.4631 1.76756 12.3055 1.76761C12.1478 1.76765 11.9922 1.79753 11.8478 1.85499C11.7035 1.91244 11.5738 1.99602 11.4658 2.09983L3.90334 9.3619C3.90332 9.36192 3.90336 9.36188 3.90334 9.3619C3.68573 9.57095 3.56813 9.84913 3.56818 10.1338V11.9437H5.49557C5.81467 11.9437 6.11579 11.8219 6.33431 11.6119L13.8914 4.36023C13.8914 4.36026 13.8915 4.3602 13.8914 4.36023C14.1091 4.15122 14.2268 3.873 14.2268 3.5883C14.2268 3.30355 14.1092 3.02538 13.8914 2.81636L13.1454 2.09934C13.0373 1.99559 12.9076 1.91209 12.7632 1.85472ZM1.5 14.8662C1.5 14.5162 1.78491 14.2324 2.13636 14.2324H14.8636C15.2151 14.2324 15.5 14.5162 15.5 14.8662C15.5 15.2162 15.2151 15.5 14.8636 15.5H2.13636C1.78491 15.5 1.5 15.2162 1.5 14.8662Z" fill="white"/>
</svg>